<?xml version="1.0" encoding="iso-8859-1"?>
<!-- Uploaded to: SVG Repo, www.svgrepo.com, Generator: SVG Repo Mixer Tools -->
<!DOCTYPE svg PUBLIC "-//W3C//DTD SVG 1.1//EN" "http://www.w3.org/Graphics/SVG/1.1/DTD/svg11.dtd">
<svg fill="#000000" version="1.1" id="Capa_1" xmlns="http://www.w3.org/2000/svg" xmlns:xlink="http://www.w3.org/1999/xlink" 
	 width="800px" height="800px" viewBox="0 0 240.954 240.954"
	 xml:space="preserve">
<g>
	<path d="M45.187,60.986L30.423,38.126c-0.836-1.308-2.582-1.667-3.869-0.834c-1.297,0.84-1.68,2.572-0.832,3.872l14.752,22.832
		c-1.669,2.394-1.839,5.65-0.159,8.255c1.368,2.123,3.7,3.395,6.233,3.395c1.422,0,2.806-0.411,4.022-1.182
		c1.667-1.076,2.812-2.741,3.222-4.685c0.411-1.934,0.056-3.912-1.022-5.559C51.151,61.722,48.049,60.504,45.187,60.986z
		 M47.519,69.757c-0.806,0.525-1.987,0.268-2.502-0.534c-0.547-0.84-0.3-1.967,0.532-2.503c0.301-0.191,0.635-0.292,0.985-0.292
		c0.617,0,1.193,0.309,1.527,0.834c0.262,0.405,0.35,0.882,0.25,1.352C48.208,69.09,47.922,69.492,47.519,69.757z M240.405,162.201
		c2.736-18.189-5.368-29.938-10.873-37.909c-6.556-9.478-17.712-15.749-21.494-17.695c-4.504-19.527-22.396-24.317-31.169-24.145
		c-0.333,0.005-0.64,0.012-0.963,0.012c-12.919,0-27.861-6.668-32.58-8.948c0.166-8.933,1.56-14.285,1.921-15.521
		c3.989-6.495,5.259-11.448,3.88-15.135c-0.41-1.097-1.045-1.962-1.718-2.6c2.658-23.976-16.494-28.594-16.812-28.662
		c-0.184-0.033-4.727-0.829-7.944-0.566c-3.524-0.279-8.06,0.528-8.371,0.585c-0.191,0.044-19.323,4.662-16.685,28.633
		c-0.679,0.643-1.303,1.507-1.718,2.604c-1.379,3.693-0.121,8.64,3.864,15.135c0.36,1.237,1.755,6.588,1.926,15.522
		c-2.057,0.996-6.135,2.839-11.075,4.604c2.512-11.767,0.361-23.959-6.294-34.268c-6.632-10.282-16.87-17.366-28.832-19.943
		c-0.066-0.01-0.12-0.016-0.181-0.03l0.295-2.706c1.702-0.935,2.791-2.413,2.967-4.128c0.203-1.828-0.64-3.625-2.309-4.936
		c-1.303-1.026-3.07-1.705-4.969-1.918c-4.537-0.52-8.219,1.721-8.581,5.133c-0.186,1.721,0.569,3.4,2.015,4.673l-0.324,2.941
		c-5.597,0.17-11.092,1.347-16.279,3.538l-2.665-4.126c1.396-2.684,1.434-5.406,0.054-7.54c-0.946-1.475-2.451-2.465-4.361-2.881
		c-2.888-0.621-6.446,0.208-9.542,2.203c-5.353,3.444-7.613,9.143-5.15,12.971c1.374,2.14,3.853,3.234,6.901,3.053l2.533,3.929
		C8.377,40.54,3.157,49.18,1.044,59.027c-2.577,11.956-0.35,24.205,6.292,34.482c5.292,8.208,13.073,14.447,22.064,17.907
		c-4.443,3.179-9.674,7.617-13.473,13.116l-0.717,1.04c-5.28,7.59-13.274,19.07-10.594,36.827c0.226,0.97,5.528,23.868,9.8,31.935
		c1.122,2.102-1.17,9.116-1.931,11.419c-0.077,0.231-0.121,0.461-0.126,0.718c-0.049,0.831-0.361,7.979,2.216,12.957
		c0.115,1.489,0.642,4.636,2.869,6.774c1.166,1.116,2.625,1.797,4.272,1.993c1.287,1.099,3.393,2.116,6.369,1.931
		c0.806,0.334,1.993,0.685,3.546,0.685c0.75,0,1.56-0.083,2.452-0.279c1.183,0.196,3.371,0.334,6.184-0.569
		c1.373,0.208,3.064,0,4.443-1.116c1.527-1.248,2.288-3.25,2.244-5.981c0.334-0.234,0.651-0.52,0.948-0.854
		c1.8-2.036,2.281-5.259,1.476-9.877c-0.059-0.339-0.168-0.649-0.35-0.935c-0.229-0.396-5.434-9.15-11.935-13.46
		c-0.53-4.599-0.995-10.875-0.58-12.724c1.707-7.438,3.421-17.855,0.115-26.261c4.088-1.505,11.103-4.367,14.409-7.321
		c3.059-2.726,5.384-4.914,7.452-7.234c1.8,6.474,7.639,15.475,22.49,27.234c-0.487,6.396-1.871,30.741,3.765,45.023
		c0.57,1.434,2.206,2.134,3.628,1.575c1.44-0.569,2.15-2.194,1.571-3.628c-5.894-14.955-3.294-43.693-3.268-43.979
		c0.093-0.952-0.317-1.882-1.066-2.467c-24.197-18.812-22.748-28.537-21.72-31.054c0.104-0.241,0.116-0.504,0.144-0.756
		c4.361,9.052,14.594,15.412,26.479,15.412c15.84,0,28.738-11.296,28.738-25.18V114.83c0-1.549-1.259-2.801-2.801-2.801
		c-1.55,0-2.802,1.252-2.802,2.801v11.551c0,10.798-10.381,19.573-23.136,19.573c-12.744,0-23.125-8.775-23.125-19.573
		c0-1.542-1.259-2.802-2.802-2.802s-2.802,1.26-2.802,2.802c0,2.627,0.586,5.106,1.45,7.492c-0.196-0.191-0.394-0.378-0.645-0.515
		c-1.276-0.656-2.862-0.241-3.64,0.974c-3.365,5.199-6.184,8.066-11.632,12.925c-3.131,2.791-12.208,6.178-15.448,7.24
		c-0.815,0.272-1.456,0.887-1.751,1.686c-0.301,0.799-0.219,1.673,0.213,2.406c4.197,7.076,2.43,17.757,0.728,25.184
		c-0.837,3.731,0.378,13.985,0.635,15.993c0.109,0.887,0.635,1.67,1.417,2.102c5.018,2.791,9.691,9.927,10.83,11.76
		c0.546,3.502-0.116,4.548,0.131,4.618c-0.822,0.033-1.588,0.317-2.141,0.914c-0.568,0.618-0.82,1.449-0.706,2.276
		c0.334,2.357-0.054,3.229-0.175,2.987c-0.628-0.229-1.313-0.229-1.947,0.022c-2.578,0.974-4.165,0.552-4.17,0.558
		c-0.536-0.18-1.117-0.191-1.669-0.038c-1.975,0.569-3.026,0.013-3.053,0.005c0,0,0,0,0.004,0c-0.585-0.408-1.286-0.596-2.019-0.481
		c-2.085,0.302-2.839-0.547-2.855-0.547c-0.537-0.831-1.401-1.4-2.468-1.289c-0.838,0-1.282-0.237-1.522-0.479
		c-0.952-0.908-1.193-2.921-1.197-3.528c0-0.504-0.131-1.008-0.395-1.429c-1.673-2.829-1.872-7.936-1.8-10.094
		c1.789-5.508,3.447-11.63,1.434-15.422c-3.929-7.41-9.23-30.337-9.247-30.359c-2.309-15.332,4.623-25.302,9.691-32.568l0.728-1.058
		c4.497-6.489,11.463-11.491,15.912-14.27c0.705,0.15,1.395,0.342,2.118,0.46c0.143,0.021,0.301,0.032,0.442,0.032
		c1.353,0,2.539-0.98,2.758-2.353c0.082-0.476-0.005-0.931-0.154-1.363c0.273-0.348,0.472-0.745,0.558-1.188
		c3.256-17.007,18.233-21.231,25.823-20.979c2.638,0.052,5.341-0.172,8.055-0.558c0.088,0.005,0.159,0.065,0.251,0.065
		c0.285,0,0.537-0.128,0.81-0.219c2.589-0.407,5.155-0.969,7.628-1.625c0.176,0.119,0.335,0.252,0.536,0.326
		c1.385,0.498,2.867-0.167,3.465-1.48c9.329-2.895,16.563-6.583,17.066-6.84c0.914-0.482,1.5-1.439,1.5-2.476
		c0-12.334-2.223-19.029-2.315-19.311c-0.077-0.208-0.164-0.403-0.278-0.583c-4.083-6.539-3.892-9.417-3.628-10.353
		c0.152-0.528,0.411-0.708,0.355-0.708c0,0-0.005,0-0.017,0c1.319-0.408,2.162-1.718,1.955-3.092
		c-3.021-20.257,11.546-23.958,12.027-24.076c1.104-0.202,4.464-0.689,6.794-0.489c0.144,0.013,0.466,0.013,0.619,0
		c2.741-0.236,6.654,0.465,6.654,0.465c0.646,0.142,15.228,3.688,12.183,24.107c-0.21,1.373,0.457,2.629,1.778,3.037
		c0.052,0.022,0.342,0.192,0.495,0.764c0.274,0.935,0.449,3.813-3.628,10.358c-0.112,0.186-0.201,0.383-0.271,0.583
		c-0.098,0.282-2.315,6.982-2.315,19.311c0,1.042,0.579,1.995,1.499,2.477c0.831,0.437,20.591,10.74,37.806,10.331
		c7.475-0.256,22.562,3.972,25.822,20.979c0.166,0.887,0.755,1.636,1.567,2.012c0.13,0.062,13.596,6.399,20.66,16.621
		c4.865,7.048,12.225,17.701,9.856,33.478c-0.06,0.229-5.364,23.163-9.286,30.566c-2.021,3.815-0.355,9.928,1.429,15.431
		c0.069,2.156-0.126,7.268-1.803,10.091c-0.251,0.432-0.383,0.925-0.383,1.428c0,0.471-0.214,2.584-1.19,3.524
		c-0.252,0.241-0.668,0.486-1.527,0.48c-0.98-0.016-1.862,0.346-2.394,1.194c-0.085,0.089-0.842,0.93-2.966,0.646
		c-0.594-0.104-1.383,0.111-1.929,0.429c-0.052,0.024-1.092,0.616-3.114,0.042c-0.494-0.144-1.102-0.121-1.592,0.016
		c-0.073,0.017-1.682,0.451-4.259-0.534c-0.635-0.242-1.396-0.122-2.013,0.113c-0.008-0.011-0.443-0.701-0.116-3.125
		c0.12-0.826,0.093-1.625-0.477-2.237c-0.574-0.624-1.19-0.941-1.98-0.876c-0.009-0.011-0.82-0.939-0.241-4.706
		c1.708-2.789,6.284-9.218,10.831-11.748c0.781-0.431,1.309-1.215,1.421-2.102c0.252-2.019,1.479-12.274,0.62-15.995
		c-1.698-7.436-3.449-18.14,0.729-25.169c0.43-0.735,0.518-1.621,0.216-2.418c-0.306-0.802-0.94-1.414-1.751-1.686
		c-3.236-1.059-12.317-4.45-15.446-7.236c-5.449-4.859-8.274-7.732-11.645-12.936c-0.789-1.221-2.376-1.619-3.638-0.952
		c-0.21,0.109-0.363,0.268-0.541,0.411c0.835-2.354,1.415-4.805,1.415-7.399c0-1.546-1.253-2.802-2.802-2.802
		c-1.541,0-2.802,1.256-2.802,2.802c0,10.791-10.375,19.568-23.125,19.568c-12.744,0-23.124-8.777-23.124-19.568v-11.556
		c0-1.546-1.259-2.802-2.802-2.802s-2.801,1.256-2.801,2.802v11.556c0,13.883,12.892,25.172,28.727,25.172
		c11.844,0,22.031-6.314,26.425-15.3c0.033,0.219,0.044,0.442,0.126,0.656c1.034,2.522,2.5,12.22-21.719,31.049
		c-0.761,0.58-1.159,1.515-1.07,2.473c0.033,0.292,2.643,29.035-3.269,43.985c-0.569,1.438,0.137,3.063,1.578,3.621
		c1.442,0.574,3.067-0.119,3.628-1.575c5.65-14.282,4.255-38.633,3.763-45.019c14.845-11.771,20.689-20.772,22.497-27.24
		c2.068,2.315,4.397,4.51,7.447,7.229c3.306,2.96,10.323,5.822,14.405,7.328c-3.297,8.372-1.579,18.804,0.115,26.26
		c0.421,1.85-0.038,8.12-0.569,12.716c-6.517,4.323-11.71,13.078-11.939,13.479c-0.158,0.29-0.284,0.597-0.345,0.93
		c-0.813,4.608-0.34,7.844,1.467,9.879c0.297,0.338,0.606,0.617,0.941,0.847c-0.037,2.741,0.724,4.744,2.251,5.994
		c1.377,1.108,3.059,1.327,4.44,1.108c2.824,0.908,5.015,0.772,6.191,0.569c2.728,0.602,4.805,0.093,5.98-0.399
		c3.003,0.187,5.1-0.843,6.384-1.938c1.652-0.196,3.114-0.876,4.281-1.992c2.22-2.134,2.736-5.291,2.862-6.774
		c2.569-4.983,2.246-12.126,2.208-12.952c-0.009-0.24-0.06-0.481-0.126-0.711c-2.017-6.188-2.675-10.029-1.918-11.436
		C234.835,186.289,240.143,163.383,240.405,162.201z M50.664,15.768c0.915,0.101,1.56,0.38,1.954,0.626
		c-0.098,0.036-0.196,0.069-0.322,0.102c-0.843,0.213-1.522,0.807-1.873,1.576c-0.168-0.818-0.7-1.535-1.478-1.929
		c-0.119-0.055-0.218-0.118-0.306-0.172C49.078,15.806,49.778,15.667,50.664,15.768z M17.094,25.643
		c-0.625-0.988-1.807-1.47-2.945-1.223c-1.565,0.336-2.714,0.09-2.993-0.342c-0.476-0.739,0.471-3.3,3.469-5.234
		c2.217-1.428,4.263-1.663,5.336-1.434c0.241,0.058,0.667,0.187,0.831,0.449c0.273,0.427,0.045,1.568-0.914,2.859
		c-0.694,0.936-0.738,2.21-0.104,3.193l3.294,5.097c-0.688,0.399-1.396,0.763-2.073,1.201c-0.225,0.146-0.428,0.315-0.651,0.466
		L17.094,25.643z M39.889,98.71c-8.038-1.749-15.114-6.581-19.61-13.533c-6.971-10.815-6.546-25.059,1.055-35.437
		c0.92-1.256,0.646-3.009-0.597-3.923c-1.248-0.911-3.003-0.643-3.918,0.607c-8.968,12.235-9.467,29.029-1.248,41.79
		c5.123,7.912,13.072,13.508,22.135,15.751c-0.274,0.873-0.554,1.749-0.766,2.685c-0.406,0.224-0.941,0.524-1.516,0.855
		c-9.588-2.571-17.966-8.624-23.388-17.023c-5.822-9.02-7.793-19.767-5.521-30.262c2.27-10.496,8.481-19.483,17.505-25.3
		c9.011-5.822,19.769-7.784,30.266-5.519c10.494,2.263,19.486,8.476,25.308,17.505c6.434,9.973,8.059,21.954,4.688,33.237
		c-1.051,0.292-2.123,0.544-3.201,0.796c3.951-10.769,2.737-22.854-3.611-32.679c-0.843-1.3-2.578-1.664-3.874-0.829
		c-1.286,0.843-1.669,2.571-0.821,3.874c5.997,9.289,6.567,20.955,1.681,30.813c-2.129,0.252-4.253,0.413-6.321,0.346
		C60.52,82.312,46.676,85.777,39.889,98.71z M156.193,140.677c-2.186,0-3.941-1.808-3.941-4.047c0-2.232,1.756-4.037,3.941-4.037
		c2.194,0,3.959,1.8,3.959,4.037C160.152,138.869,158.388,140.677,156.193,140.677z M88.859,132.598c2.183,0,3.938,1.8,3.938,4.039
		c0,2.232-1.755,4.044-3.938,4.044c-2.2,0-3.952-1.807-3.952-4.044C84.907,134.397,86.669,132.598,88.859,132.598z M150.052,181.691
		v33.041c0,1.548-1.259,2.802-2.8,2.802c-1.551,0-2.802-1.254-2.802-2.802v-33.041c0-12.108-9.866-21.975-21.978-21.975
		c-12.114,0-21.98,9.866-21.98,21.975v31.843c0,1.537-1.259,2.802-2.802,2.802s-2.802-1.265-2.802-2.802v-31.843
		c0-15.2,12.371-27.577,27.583-27.577C137.68,154.114,150.052,166.479,150.052,181.691z M140.36,196.959
		c1.101,1.078,1.111,2.867,0.027,3.963c-0.164,0.158-4.164,4.13-9.782,4.13c-0.023,0-0.046,0-0.062,0
		c-1.815-0.011-3.584-0.421-5.257-1.235v1.099c0,1.549-1.266,2.802-2.802,2.802c-1.55,0-2.804-1.253-2.804-2.802v-1.088
		c-1.686,0.809-3.436,1.214-5.258,1.225c-0.017,0-0.033,0-0.054,0c-5.625,0-9.621-3.972-9.79-4.13
		c-1.083-1.096-1.073-2.885,0.021-3.963c1.095-1.083,2.874-1.073,3.945,0.005c0.028,0.022,2.573,2.484,5.823,2.484
		c0.027,0,0.048,0,0.077,0c1.778-0.021,3.539-0.842,5.247-2.374v-5.97c-1.686,0.798-3.436,1.209-5.259,1.214
		c-0.021,0-0.038,0-0.054,0c-5.63,0-9.625-3.961-9.791-4.125c-1.088-1.095-1.077-2.879,0.011-3.962c1.106-1.084,2.874-1.066,3.951,0
		c0.061,0.06,2.594,2.484,5.829,2.484c0.021,0,0.049,0,0.07,0c1.779-0.017,3.545-0.843,5.248-2.364v-4.477
		c-1.686,0.799-3.437,1.21-5.257,1.218c-0.018,0-0.034,0-0.05,0c-5.631,0-9.631-3.97-9.801-4.137
		c-1.083-1.097-1.072-2.875,0.023-3.964c1.095-1.078,2.867-1.062,3.945,0c0.028,0.032,2.578,2.494,5.833,2.494
		c0.023,0,0.044,0,0.077,0c1.774-0.016,3.537-0.842,5.237-2.358v-4.974c0-1.541,1.255-2.801,2.802-2.801
		c1.545,0,2.801,1.26,2.801,2.801v4.964c1.704,1.526,3.459,2.358,5.243,2.375c0.032,0,0.056,0,0.076,0
		c3.258,0,5.802-2.463,5.827-2.484c1.101-1.082,2.874-1.067,3.957,0.011c1.079,1.089,1.089,2.845,0.011,3.94
		c-0.164,0.169-4.165,4.137-9.795,4.137c-0.017,0-0.033,0-0.049,0c-1.82-0.004-3.585-0.416-5.257-1.227v4.471
		c1.699,1.532,3.456,2.364,5.248,2.38c0.024,0,0.052,0,0.074,0c3.25,0,5.795-2.462,5.822-2.484c1.1-1.078,2.872-1.066,3.956,0.012
		c1.078,1.094,1.089,2.855,0.013,3.951c-0.166,0.163-4.16,4.127-9.791,4.127c-0.017,0-0.033,0-0.055,0
		c-1.822-0.008-3.582-0.429-5.259-1.228v5.971c1.719,1.542,3.497,2.374,5.286,2.391c0.011,0,0.023,0,0.032,0
		c3.264,0,5.78-2.456,5.801-2.474C137.488,195.886,139.267,195.876,140.36,196.959z M125.866,216.341
		c0,1.877-1.512,3.388-3.381,3.388c-1.879,0-3.395-1.516-3.395-3.388c0-1.882,1.521-3.403,3.395-3.403
		C124.354,212.938,125.866,214.459,125.866,216.341z M55.671,114.824c1.511-0.175,2.906,1.007,3.026,2.561
		c0.125,1.541-1.022,2.895-2.555,3.027c-21.944,1.832-23.952,20.19-24.023,20.973c-0.142,1.444-1.363,2.533-2.784,2.533
		c-0.105,0-0.182,0-0.28-0.011c-1.532-0.148-2.676-1.521-2.517-3.054C26.554,140.598,29.115,117.03,55.671,114.824z
		 M192.149,117.739c-1.526-0.176-2.643-1.554-2.475-3.089c0.164-1.535,1.531-2.679,3.077-2.48
		c0.238,0.021,23.784,2.795,25.737,29.354c0.115,1.544-1.051,2.895-2.593,2.998c-0.069,0.012-0.135,0.012-0.209,0.012
		c-1.449,0-2.681-1.128-2.788-2.594C211.294,120.13,192.936,117.821,192.149,117.739z"/>
</g>
</svg>